<svg xmlns="http://www.w3.org/2000/svg" viewBox="0 0 24 24" shape-rendering="crispEdges">
<rect x="10" y="7" width="4" height="1" fill="#35771f"/>
<rect x="8" y="8" width="2" height="1" fill="#35771f"/>
<rect x="10" y="8" width="4" height="1" fill="#7fd348"/>
<rect x="14" y="8" width="2" height="1" fill="#35771f"/>
<rect x="7" y="9" width="1" height="1" fill="#35771f"/>
<rect x="8" y="9" width="1" height="1" fill="#7fd348"/>
<rect x="9" y="9" width="1" height="1" fill="#e9ffd2"/>
<rect x="10" y="9" width="4" height="1" fill="#a6e87d"/>
<rect x="14" y="9" width="2" height="1" fill="#7fd348"/>
<rect x="16" y="9" width="1" height="1" fill="#35771f"/>
<rect x="6" y="10" width="1" height="1" fill="#35771f"/>
<rect x="7" y="10" width="1" height="1" fill="#7fd348"/>
<rect x="8" y="10" width="2" height="1" fill="#221a38"/>
<rect x="10" y="10" width="4" height="1" fill="#a6e87d"/>
<rect x="14" y="10" width="2" height="1" fill="#221a38"/>
<rect x="16" y="10" width="1" height="1" fill="#7fd348"/>
<rect x="17" y="10" width="1" height="1" fill="#35771f"/>
<rect x="6" y="11" width="1" height="1" fill="#35771f"/>
<rect x="7" y="11" width="1" height="1" fill="#7fd348"/>
<rect x="8" y="11" width="2" height="1" fill="#221a38"/>
<rect x="10" y="11" width="4" height="1" fill="#a6e87d"/>
<rect x="14" y="11" width="2" height="1" fill="#221a38"/>
<rect x="16" y="11" width="1" height="1" fill="#7fd348"/>
<rect x="17" y="11" width="1" height="1" fill="#35771f"/>
<rect x="5" y="12" width="1" height="1" fill="#35771f"/>
<rect x="6" y="12" width="1" height="1" fill="#7fd348"/>
<rect x="7" y="12" width="1" height="1" fill="#ee86ae"/>
<rect x="8" y="12" width="8" height="1" fill="#a6e87d"/>
<rect x="16" y="12" width="1" height="1" fill="#ee86ae"/>
<rect x="17" y="12" width="1" height="1" fill="#7fd348"/>
<rect x="18" y="12" width="1" height="1" fill="#35771f"/>
<rect x="5" y="13" width="1" height="1" fill="#35771f"/>
<rect x="6" y="13" width="1" height="1" fill="#7fd348"/>
<rect x="7" y="13" width="4" height="1" fill="#a6e87d"/>
<rect x="11" y="13" width="2" height="1" fill="#221a38"/>
<rect x="13" y="13" width="4" height="1" fill="#a6e87d"/>
<rect x="17" y="13" width="1" height="1" fill="#7fd348"/>
<rect x="18" y="13" width="1" height="1" fill="#35771f"/>
<rect x="5" y="14" width="1" height="1" fill="#35771f"/>
<rect x="6" y="14" width="1" height="1" fill="#7fd348"/>
<rect x="7" y="14" width="10" height="1" fill="#a6e87d"/>
<rect x="17" y="14" width="1" height="1" fill="#7fd348"/>
<rect x="18" y="14" width="1" height="1" fill="#35771f"/>
<rect x="5" y="15" width="1" height="1" fill="#35771f"/>
<rect x="6" y="15" width="1" height="1" fill="#7fd348"/>
<rect x="7" y="15" width="10" height="1" fill="#a6e87d"/>
<rect x="17" y="15" width="1" height="1" fill="#7fd348"/>
<rect x="18" y="15" width="1" height="1" fill="#35771f"/>
<rect x="4" y="16" width="1" height="1" fill="#35771f"/>
<rect x="5" y="16" width="1" height="1" fill="#7fd348"/>
<rect x="6" y="16" width="2" height="1" fill="#a6e87d"/>
<rect x="8" y="16" width="2" height="1" fill="#f6eedc"/>
<rect x="10" y="16" width="4" height="1" fill="#a6e87d"/>
<rect x="14" y="16" width="2" height="1" fill="#f6eedc"/>
<rect x="16" y="16" width="2" height="1" fill="#a6e87d"/>
<rect x="18" y="16" width="1" height="1" fill="#7fd348"/>
<rect x="19" y="16" width="1" height="1" fill="#35771f"/>
<rect x="4" y="17" width="1" height="1" fill="#35771f"/>
<rect x="5" y="17" width="1" height="1" fill="#7fd348"/>
<rect x="6" y="17" width="2" height="1" fill="#a6e87d"/>
<rect x="8" y="17" width="8" height="1" fill="#f6eedc"/>
<rect x="16" y="17" width="2" height="1" fill="#a6e87d"/>
<rect x="18" y="17" width="1" height="1" fill="#7fd348"/>
<rect x="19" y="17" width="1" height="1" fill="#35771f"/>
<rect x="4" y="18" width="1" height="1" fill="#35771f"/>
<rect x="5" y="18" width="1" height="1" fill="#7fd348"/>
<rect x="6" y="18" width="2" height="1" fill="#a6e87d"/>
<rect x="8" y="18" width="2" height="1" fill="#f6eedc"/>
<rect x="10" y="18" width="4" height="1" fill="#a6e87d"/>
<rect x="14" y="18" width="2" height="1" fill="#f6eedc"/>
<rect x="16" y="18" width="2" height="1" fill="#a6e87d"/>
<rect x="18" y="18" width="1" height="1" fill="#7fd348"/>
<rect x="19" y="18" width="1" height="1" fill="#35771f"/>
<rect x="4" y="19" width="1" height="1" fill="#35771f"/>
<rect x="5" y="19" width="14" height="1" fill="#7fd348"/>
<rect x="19" y="19" width="1" height="1" fill="#35771f"/>
<rect x="4" y="20" width="16" height="1" fill="#35771f"/>
<rect x="5" y="21" width="15" height="1" fill="#0d0a1c"/>
</svg>
